<svg class="border shadow-md" viewBox="0 0 1351.68 760.32" style="width: 1351.68px; height: 760.32px;" xmlns="http://www.w3.org/2000/svg" preserveAspectRatio="none"><rect class="bg" id="bg" x="0" y="0" width="1351.68" height="760.32" fill="#ffffff"/><path d="M 0 -69.12 L 0 -69.12&#xA;                L 112.00 -34.56&#xA;                L 225.28 -69.12 L 225.28 -69.12&#xA;                L 300.37 -31.12&#xA;                L 450.56 -69.12 L 450.56 -69.12&#xA;                L 525.65 -34.56&#xA;                L 675.84 -69.12 L 675.84 -69.12&#xA;                L 794.84 -25.12&#xA;                L 901.12 -69.12 L 901.12 -69.12&#xA;                L 1065.12 -8.12&#xA;                L 1126.4 -69.12 L 1126.4 -69.12&#xA;                L 1246.40 -6.12&#xA;                L 1351.68 -69.12 L 1351.68 -69.12&#xA;                L 1426.77 -34.56&#xA;                L 1576.96 -69.12  V 760.32 H 0 V -69.12 Z" fill="#F95164"/><path d="M 0 0 L 0 0.00&#xA;                L 75.09 34.56&#xA;                L 225.28 0.00 L 225.28 0.00&#xA;                L 300.37 34.56&#xA;                L 450.56 0.00 L 450.56 0.00&#xA;                L 525.65 38.00&#xA;                L 675.84 0.00 L 675.84 0.00&#xA;                L 750.93 34.56&#xA;                L 901.12 0.00 L 901.12 0.00&#xA;                L 976.21 35.00&#xA;                L 1126.4 0.00 L 1126.4 0.00&#xA;                L 1219.40 34.56&#xA;                L 1351.68 0.00 L 1351.68 0.00&#xA;                L 1426.77 34.56&#xA;                L 1576.96 0.00  V 760.32 H 0 V 0.00 Z" fill="#e44c62"/><path d="M 0 69.12 L 0 69.12&#xA;                L 75.09 111.12&#xA;                L 225.28 69.12 L 225.28 69.12&#xA;                L 375.28 103.68&#xA;                L 450.56 69.12 L 450.56 69.12&#xA;                L 551.56 103.68&#xA;                L 675.84 69.12 L 675.84 69.12&#xA;                L 800.84 118.12&#xA;                L 901.12 69.12 L 901.12 69.12&#xA;                L 979.12 103.68&#xA;                L 1126.4 69.12 L 1126.4 69.12&#xA;                L 1201.49 126.12&#xA;                L 1351.68 69.12 L 1351.68 69.12&#xA;                L 1491.68 103.68&#xA;                L 1576.96 69.12  V 760.32 H 0 V 69.12 Z" fill="#cf4760"/><path d="M 0 138.24 L 0 138.24&#xA;                L 75.09 172.80&#xA;                L 225.28 138.24 L 225.28 138.24&#xA;                L 300.37 193.24&#xA;                L 450.56 138.24 L 450.56 138.24&#xA;                L 601.56 201.24&#xA;                L 675.84 138.24 L 675.84 138.24&#xA;                L 750.93 172.80&#xA;                L 901.12 138.24 L 901.12 138.24&#xA;                L 1066.12 172.80&#xA;                L 1126.4 138.24 L 1126.4 138.24&#xA;                L 1201.49 193.24&#xA;                L 1351.68 138.24 L 1351.68 138.24&#xA;                L 1472.68 172.80&#xA;                L 1576.96 138.24  V 760.32 H 0 V 138.24 Z" fill="#ba425e"/><path d="M 0 207.36 L 0 207.36&#xA;                L 111.00 241.92&#xA;                L 225.28 207.36 L 225.28 207.36&#xA;                L 300.37 256.36&#xA;                L 450.56 207.36 L 450.56 207.36&#xA;                L 525.65 241.92&#xA;                L 675.84 207.36 L 675.84 207.36&#xA;                L 750.93 269.36&#xA;                L 901.12 207.36 L 901.12 207.36&#xA;                L 991.12 241.92&#xA;                L 1126.4 207.36 L 1126.4 207.36&#xA;                L 1201.49 241.92&#xA;                L 1351.68 207.36 L 1351.68 207.36&#xA;                L 1483.68 241.92&#xA;                L 1576.96 207.36  V 760.32 H 0 V 207.36 Z" fill="#a53d5c"/><path d="M 0 276.48 L 0 276.48&#xA;                L 75.09 311.04&#xA;                L 225.28 276.48 L 225.28 276.48&#xA;                L 300.37 311.04&#xA;                L 450.56 276.48 L 450.56 276.48&#xA;                L 525.65 312.48&#xA;                L 675.84 276.48 L 675.84 276.48&#xA;                L 750.93 343.48&#xA;                L 901.12 276.48 L 901.12 276.48&#xA;                L 976.21 341.48&#xA;                L 1126.4 276.48 L 1126.4 276.48&#xA;                L 1275.40 335.48&#xA;                L 1351.68 276.48 L 1351.68 276.48&#xA;                L 1450.68 311.04&#xA;                L 1576.96 276.48  V 760.32 H 0 V 276.48 Z" fill="#90385a"/><path d="M 0 345.6 L 0 345.60&#xA;                L 75.09 380.16&#xA;                L 225.28 345.60 L 225.28 345.60&#xA;                L 324.28 405.60&#xA;                L 450.56 345.60 L 450.56 345.60&#xA;                L 569.56 380.16&#xA;                L 675.84 345.60 L 675.84 345.60&#xA;                L 750.93 380.16&#xA;                L 901.12 345.60 L 901.12 345.60&#xA;                L 976.21 380.16&#xA;                L 1126.4 345.60 L 1126.4 345.60&#xA;                L 1201.49 388.60&#xA;                L 1351.68 345.60 L 1351.68 345.60&#xA;                L 1429.68 380.16&#xA;                L 1576.96 345.60  V 760.32 H 0 V 345.60 Z" fill="#7b3358"/><path d="M 0 414.72 L 0 414.72&#xA;                L 127.00 453.72&#xA;                L 225.28 414.72 L 225.28 414.72&#xA;                L 300.37 462.72&#xA;                L 450.56 414.72 L 450.56 414.72&#xA;                L 618.56 449.28&#xA;                L 675.84 414.72 L 675.84 414.72&#xA;                L 752.84 449.28&#xA;                L 901.12 414.72 L 901.12 414.72&#xA;                L 1037.12 449.28&#xA;                L 1126.4 414.72 L 1126.4 414.72&#xA;                L 1218.40 449.28&#xA;                L 1351.68 414.72 L 1351.68 414.72&#xA;                L 1452.68 449.28&#xA;                L 1576.96 414.72  V 760.32 H 0 V 414.72 Z" fill="#662e56"/><path d="M 0 483.84000000000003 L 0 483.84&#xA;                L 75.09 521.84&#xA;                L 225.28 483.84 L 225.28 483.84&#xA;                L 300.37 518.40&#xA;                L 450.56 483.84 L 450.56 483.84&#xA;                L 553.56 518.40&#xA;                L 675.84 483.84 L 675.84 483.84&#xA;                L 750.93 525.84&#xA;                L 901.12 483.84 L 901.12 483.84&#xA;                L 1019.12 540.84&#xA;                L 1126.4 483.84 L 1126.4 483.84&#xA;                L 1201.49 548.84&#xA;                L 1351.68 483.84 L 1351.68 483.84&#xA;                L 1426.77 530.84&#xA;                L 1576.96 483.84  V 760.32 H 0 V 483.84 Z" fill="#512954"/><path d="M 0 552.96 L 0 552.96&#xA;                L 113.00 605.96&#xA;                L 225.28 552.96 L 225.28 552.96&#xA;                L 361.28 612.96&#xA;                L 450.56 552.96 L 450.56 552.96&#xA;                L 525.65 587.52&#xA;                L 675.84 552.96 L 675.84 552.96&#xA;                L 825.84 606.96&#xA;                L 901.12 552.96 L 901.12 552.96&#xA;                L 991.12 587.52&#xA;                L 1126.4 552.96 L 1126.4 552.96&#xA;                L 1286.40 599.96&#xA;                L 1351.68 552.96 L 1351.68 552.96&#xA;                L 1443.68 587.52&#xA;                L 1576.96 552.96  V 760.32 H 0 V 552.96 Z" fill="#3c2452"/><path d="M 0 622.08 L 0 622.08&#xA;                L 97.00 684.08&#xA;                L 225.28 622.08 L 225.28 622.08&#xA;                L 384.28 684.08&#xA;                L 450.56 622.08 L 450.56 622.08&#xA;                L 525.65 686.08&#xA;                L 675.84 622.08 L 675.84 622.08&#xA;                L 750.93 656.64&#xA;                L 901.12 622.08 L 901.12 622.08&#xA;                L 976.21 656.64&#xA;                L 1126.4 622.08 L 1126.4 622.08&#xA;                L 1201.49 676.08&#xA;                L 1351.68 622.08 L 1351.68 622.08&#xA;                L 1426.77 680.08&#xA;                L 1576.96 622.08  V 760.32 H 0 V 622.08 Z" fill="#271f50"/><path d="M 0 691.2 L 0 691.20&#xA;                L 132.00 759.20&#xA;                L 225.28 691.20 L 225.28 691.20&#xA;                L 300.37 725.76&#xA;                L 450.56 691.20 L 450.56 691.20&#xA;                L 545.56 725.76&#xA;                L 675.84 691.20 L 675.84 691.20&#xA;                L 750.93 745.20&#xA;                L 901.12 691.20 L 901.12 691.20&#xA;                L 999.12 745.20&#xA;                L 1126.4 691.20 L 1126.4 691.20&#xA;                L 1201.49 725.76&#xA;                L 1351.68 691.20 L 1351.68 691.20&#xA;                L 1502.68 745.20&#xA;                L 1576.96 691.20  V 760.32 H 0 V 691.20 Z" fill="#121a4e"/></svg>