<svg class="border shadow-md" viewBox="0 0 1351.68 760.32" style="width: 1351.68px; height: 760.32px;" xmlns="http://www.w3.org/2000/svg" preserveAspectRatio="none"><rect class="bg" id="bg" x="0" y="0" width="1351.68" height="760.32" fill="#230e2e"/><g><path d="M 0 -57.52V -92.03200000000001 H 56.32 V -57.52 H 112.64 V -34.512 H 168.96 V -46.016000000000005 H 225.28 V -46.016000000000005 H 281.6 V -46.016000000000005 H 337.92 V -34.512 H 394.24 V -69.024 H 450.56 V -23.008000000000003 H 506.88 V -80.528 H 563.2 V -69.024 H 619.52 V -57.52 H 675.84 V -57.52 H 732.16 V -69.024 H 788.48 V -69.024 H 844.8 V -34.512 H 901.12 V -92.03200000000001 H 957.44 V -34.512 H 1013.76 V -23.008000000000003 H 1070.08 V -57.52 H 1126.4 V -92.03200000000001 H 1182.72 V -46.016000000000005 H 1239.04 V -92.03200000000001 H 1295.36 V -34.512 H 1351.68 V 761.32 H 0 V -57.52 Z" fill="#FF8FBB"/></g><g><path d="M 0 0V 11.504000000000001 H 56.32 V 23.008000000000003 H 112.64 V 34.512 H 168.96 V 0 H 225.28 V 23.008000000000003 H 281.6 V -23.008000000000003 H 337.92 V -23.008000000000003 H 394.24 V 0 H 450.56 V 34.512 H 506.88 V -23.008000000000003 H 563.2 V -23.008000000000003 H 619.52 V 34.512 H 675.84 V 0 H 732.16 V 34.512 H 788.48 V -34.512 H 844.8 V -34.512 H 901.12 V -23.008000000000003 H 957.44 V -34.512 H 1013.76 V 23.008000000000003 H 1070.08 V 11.504000000000001 H 1126.4 V 34.512 H 1182.72 V -34.512 H 1239.04 V 0 H 1295.36 V 34.512 H 1351.68 V 761.32 H 0 V 0 Z" fill="#f588b6"/></g><g><path d="M 0 57.52V 57.52 H 56.32 V 80.528 H 112.64 V 69.024 H 168.96 V 57.52 H 225.28 V 92.03200000000001 H 281.6 V 34.512 H 337.92 V 34.512 H 394.24 V 69.024 H 450.56 V 80.528 H 506.88 V 57.52 H 563.2 V 57.52 H 619.52 V 34.512 H 675.84 V 57.52 H 732.16 V 46.016000000000005 H 788.48 V 57.52 H 844.8 V 57.52 H 901.12 V 23.008000000000003 H 957.44 V 34.512 H 1013.76 V 69.024 H 1070.08 V 46.016000000000005 H 1126.4 V 69.024 H 1182.72 V 57.52 H 1239.04 V 23.008000000000003 H 1295.36 V 34.512 H 1351.68 V 761.32 H 0 V 57.52 Z" fill="#eb81b1"/></g><g><path d="M 0 115.04V 149.55200000000002 H 56.32 V 115.04 H 112.64 V 115.04 H 168.96 V 80.528 H 225.28 V 115.04 H 281.6 V 92.03200000000001 H 337.92 V 149.55200000000002 H 394.24 V 126.54400000000001 H 450.56 V 126.54400000000001 H 506.88 V 92.03200000000001 H 563.2 V 138.048 H 619.52 V 115.04 H 675.84 V 92.03200000000001 H 732.16 V 149.55200000000002 H 788.48 V 115.04 H 844.8 V 126.54400000000001 H 901.12 V 138.048 H 957.44 V 92.03200000000001 H 1013.76 V 138.048 H 1070.08 V 149.55200000000002 H 1126.4 V 115.04 H 1182.72 V 115.04 H 1239.04 V 138.048 H 1295.36 V 149.55200000000002 H 1351.68 V 761.32 H 0 V 115.04 Z" fill="#e17aac"/></g><g><path d="M 0 172.56V 149.552 H 56.32 V 172.56 H 112.64 V 207.072 H 168.96 V 195.568 H 225.28 V 184.064 H 281.6 V 172.56 H 337.92 V 161.056 H 394.24 V 207.072 H 450.56 V 172.56 H 506.88 V 207.072 H 563.2 V 195.568 H 619.52 V 138.048 H 675.84 V 195.568 H 732.16 V 184.064 H 788.48 V 184.064 H 844.8 V 138.048 H 901.12 V 149.552 H 957.44 V 172.56 H 1013.76 V 138.048 H 1070.08 V 172.56 H 1126.4 V 172.56 H 1182.72 V 149.552 H 1239.04 V 172.56 H 1295.36 V 138.048 H 1351.68 V 761.32 H 0 V 172.56 Z" fill="#d773a7"/></g><g><path d="M 0 230.08V 207.072 H 56.32 V 253.08800000000002 H 112.64 V 195.568 H 168.96 V 230.08 H 225.28 V 230.08 H 281.6 V 195.568 H 337.92 V 230.08 H 394.24 V 241.584 H 450.56 V 241.584 H 506.88 V 253.08800000000002 H 563.2 V 253.08800000000002 H 619.52 V 230.08 H 675.84 V 230.08 H 732.16 V 264.592 H 788.48 V 241.584 H 844.8 V 264.592 H 901.12 V 241.584 H 957.44 V 230.08 H 1013.76 V 241.584 H 1070.08 V 253.08800000000002 H 1126.4 V 264.592 H 1182.72 V 230.08 H 1239.04 V 207.072 H 1295.36 V 230.08 H 1351.68 V 761.32 H 0 V 230.08 Z" fill="#cd6ca2"/></g><g><path d="M 0 287.6V 253.08800000000002 H 56.32 V 287.6 H 112.64 V 310.608 H 168.96 V 299.10400000000004 H 225.28 V 276.096 H 281.6 V 253.08800000000002 H 337.92 V 287.6 H 394.24 V 276.096 H 450.56 V 322.112 H 506.88 V 287.6 H 563.2 V 322.112 H 619.52 V 299.10400000000004 H 675.84 V 264.59200000000004 H 732.16 V 322.112 H 788.48 V 287.6 H 844.8 V 322.112 H 901.12 V 287.6 H 957.44 V 253.08800000000002 H 1013.76 V 310.608 H 1070.08 V 287.6 H 1126.4 V 264.59200000000004 H 1182.72 V 287.6 H 1239.04 V 276.096 H 1295.36 V 287.6 H 1351.68 V 761.32 H 0 V 287.6 Z" fill="#c3659d"/></g><g><path d="M 0 345.12V 379.632 H 56.32 V 356.624 H 112.64 V 345.12 H 168.96 V 345.12 H 225.28 V 379.632 H 281.6 V 322.112 H 337.92 V 333.616 H 394.24 V 345.12 H 450.56 V 368.128 H 506.88 V 322.112 H 563.2 V 379.632 H 619.52 V 345.12 H 675.84 V 368.128 H 732.16 V 345.12 H 788.48 V 379.632 H 844.8 V 310.608 H 901.12 V 345.12 H 957.44 V 356.624 H 1013.76 V 333.616 H 1070.08 V 345.12 H 1126.4 V 356.624 H 1182.72 V 310.608 H 1239.04 V 345.12 H 1295.36 V 333.616 H 1351.68 V 761.32 H 0 V 345.12 Z" fill="#b95e98"/></g><g><path d="M 0 402.64000000000004V 402.64000000000004 H 56.32 V 391.136 H 112.64 V 402.64000000000004 H 168.96 V 391.136 H 225.28 V 437.15200000000004 H 281.6 V 368.12800000000004 H 337.92 V 437.15200000000004 H 394.24 V 437.15200000000004 H 450.56 V 402.64000000000004 H 506.88 V 391.136 H 563.2 V 402.64000000000004 H 619.52 V 437.15200000000004 H 675.84 V 414.14400000000006 H 732.16 V 368.12800000000004 H 788.48 V 425.648 H 844.8 V 414.14400000000006 H 901.12 V 437.15200000000004 H 957.44 V 437.15200000000004 H 1013.76 V 425.648 H 1070.08 V 379.63200000000006 H 1126.4 V 379.63200000000006 H 1182.72 V 437.15200000000004 H 1239.04 V 391.136 H 1295.36 V 414.14400000000006 H 1351.68 V 761.32 H 0 V 402.64000000000004 Z" fill="#af5793"/></g><g><path d="M 0 460.16V 460.16 H 56.32 V 460.16 H 112.64 V 460.16 H 168.96 V 425.648 H 225.28 V 437.15200000000004 H 281.6 V 460.16 H 337.92 V 471.66400000000004 H 394.24 V 460.16 H 450.56 V 460.16 H 506.88 V 494.672 H 563.2 V 460.16 H 619.52 V 425.648 H 675.84 V 494.672 H 732.16 V 494.672 H 788.48 V 448.656 H 844.8 V 483.168 H 901.12 V 483.168 H 957.44 V 425.648 H 1013.76 V 460.16 H 1070.08 V 483.168 H 1126.4 V 448.656 H 1182.72 V 483.168 H 1239.04 V 483.168 H 1295.36 V 494.672 H 1351.68 V 761.32 H 0 V 460.16 Z" fill="#a5508e"/></g><g><path d="M 0 517.6800000000001V 552.192 H 56.32 V 483.16800000000006 H 112.64 V 517.6800000000001 H 168.96 V 540.6880000000001 H 225.28 V 552.192 H 281.6 V 483.16800000000006 H 337.92 V 517.6800000000001 H 394.24 V 540.6880000000001 H 450.56 V 552.192 H 506.88 V 517.6800000000001 H 563.2 V 506.17600000000004 H 619.52 V 552.192 H 675.84 V 529.1840000000001 H 732.16 V 506.17600000000004 H 788.48 V 517.6800000000001 H 844.8 V 529.1840000000001 H 901.12 V 529.1840000000001 H 957.44 V 540.6880000000001 H 1013.76 V 506.17600000000004 H 1070.08 V 529.1840000000001 H 1126.4 V 540.6880000000001 H 1182.72 V 540.6880000000001 H 1239.04 V 552.192 H 1295.36 V 494.6720000000001 H 1351.68 V 761.32 H 0 V 517.6800000000001 Z" fill="#9b4989"/></g><g><path d="M 0 575.2V 586.7040000000001 H 56.32 V 575.2 H 112.64 V 575.2 H 168.96 V 575.2 H 225.28 V 575.2 H 281.6 V 575.2 H 337.92 V 586.7040000000001 H 394.24 V 609.712 H 450.56 V 598.2080000000001 H 506.88 V 563.696 H 563.2 V 575.2 H 619.52 V 563.696 H 675.84 V 598.2080000000001 H 732.16 V 575.2 H 788.48 V 609.712 H 844.8 V 575.2 H 901.12 V 598.2080000000001 H 957.44 V 575.2 H 1013.76 V 575.2 H 1070.08 V 552.192 H 1126.4 V 540.6880000000001 H 1182.72 V 540.6880000000001 H 1239.04 V 575.2 H 1295.36 V 575.2 H 1351.68 V 761.32 H 0 V 575.2 Z" fill="#914284"/></g><g><path d="M 0 632.72V 598.2080000000001 H 56.32 V 632.72 H 112.64 V 609.712 H 168.96 V 609.712 H 225.28 V 609.712 H 281.6 V 598.2080000000001 H 337.92 V 609.712 H 394.24 V 598.2080000000001 H 450.56 V 667.232 H 506.88 V 621.216 H 563.2 V 598.2080000000001 H 619.52 V 667.232 H 675.84 V 598.2080000000001 H 732.16 V 598.2080000000001 H 788.48 V 644.224 H 844.8 V 632.72 H 901.12 V 609.712 H 957.44 V 598.2080000000001 H 1013.76 V 644.224 H 1070.08 V 655.7280000000001 H 1126.4 V 655.7280000000001 H 1182.72 V 644.224 H 1239.04 V 609.712 H 1295.36 V 667.232 H 1351.68 V 761.32 H 0 V 632.72 Z" fill="#873b7f"/></g><g><path d="M 0 690.24V 724.752 H 56.32 V 701.744 H 112.64 V 713.248 H 168.96 V 678.736 H 225.28 V 701.744 H 281.6 V 690.24 H 337.92 V 724.752 H 394.24 V 678.736 H 450.56 V 701.744 H 506.88 V 690.24 H 563.2 V 690.24 H 619.52 V 713.248 H 675.84 V 690.24 H 732.16 V 690.24 H 788.48 V 701.744 H 844.8 V 701.744 H 901.12 V 713.248 H 957.44 V 724.752 H 1013.76 V 713.248 H 1070.08 V 690.24 H 1126.4 V 667.232 H 1182.72 V 724.752 H 1239.04 V 724.752 H 1295.36 V 701.744 H 1351.68 V 761.32 H 0 V 690.24 Z" fill="#7d347a"/></g><g><path d="M 0 747.76V 736.256 H 56.32 V 724.752 H 112.64 V 747.76 H 168.96 V 782.2719999999999 H 225.28 V 759.264 H 281.6 V 747.76 H 337.92 V 713.248 H 394.24 V 747.76 H 450.56 V 713.248 H 506.88 V 759.264 H 563.2 V 713.248 H 619.52 V 747.76 H 675.84 V 770.768 H 732.16 V 724.752 H 788.48 V 782.2719999999999 H 844.8 V 782.2719999999999 H 901.12 V 747.76 H 957.44 V 770.768 H 1013.76 V 724.752 H 1070.08 V 736.256 H 1126.4 V 747.76 H 1182.72 V 770.768 H 1239.04 V 759.264 H 1295.36 V 770.768 H 1351.68 V 761.32 H 0 V 747.76 Z" fill="#732d75"/></g><g><path d="M 0 805.2800000000001V 770.768 H 56.32 V 793.7760000000001 H 112.64 V 816.7840000000001 H 168.96 V 816.7840000000001 H 225.28 V 828.2880000000001 H 281.6 V 805.2800000000001 H 337.92 V 816.7840000000001 H 394.24 V 816.7840000000001 H 450.56 V 805.2800000000001 H 506.88 V 828.2880000000001 H 563.2 V 816.7840000000001 H 619.52 V 805.2800000000001 H 675.84 V 805.2800000000001 H 732.16 V 793.7760000000001 H 788.48 V 805.2800000000001 H 844.8 V 816.7840000000001 H 901.12 V 816.7840000000001 H 957.44 V 793.7760000000001 H 1013.76 V 805.2800000000001 H 1070.08 V 828.2880000000001 H 1126.4 V 828.2880000000001 H 1182.72 V 770.768 H 1239.04 V 793.7760000000001 H 1295.36 V 816.7840000000001 H 1351.68 V 761.32 H 0 V 805.2800000000001 Z" fill="#692670"/></g><g><path d="M 0 862.8000000000001V 885.8080000000001 H 56.32 V 885.8080000000001 H 112.64 V 839.792 H 168.96 V 828.288 H 225.28 V 851.296 H 281.6 V 862.8000000000001 H 337.92 V 874.3040000000001 H 394.24 V 851.296 H 450.56 V 885.8080000000001 H 506.88 V 862.8000000000001 H 563.2 V 885.8080000000001 H 619.52 V 897.3120000000001 H 675.84 V 897.3120000000001 H 732.16 V 874.3040000000001 H 788.48 V 885.8080000000001 H 844.8 V 885.8080000000001 H 901.12 V 897.3120000000001 H 957.44 V 839.792 H 1013.76 V 862.8000000000001 H 1070.08 V 885.8080000000001 H 1126.4 V 851.296 H 1182.72 V 828.288 H 1239.04 V 862.8000000000001 H 1295.36 V 874.3040000000001 H 1351.68 V 761.32 H 0 V 862.8000000000001 Z" fill="#5f1f6b"/></g></svg>